<svg width="73" height="16" viewBox="0 0 73 16" fill="none" xmlns="http://www.w3.org/2000/svg">
<path d="M3.86 13.68C3.86 12.86 3.22 12.22 2.42 12.22C1.6 12.22 0.96 12.86 0.96 13.68C0.96 14.5 1.6 15.14 2.42 15.14C3.22 15.14 3.86 14.5 3.86 13.68ZM7.28422 11.94C7.28422 14.18 8.50422 15 10.4642 15H12.2642V13.1H10.8642C9.90422 13.1 9.58422 12.76 9.58422 11.94V5.84H12.2642V3.98H9.58422V1.24H7.28422V3.98H5.98422V5.84H7.28422V11.94ZM14.2056 9.44C14.2056 12.84 16.5056 15.18 19.3656 15.18C21.2056 15.18 22.5256 14.3 23.2256 13.36V15H25.5256V3.98H23.2256V5.58C22.5456 4.68 21.2656 3.8 19.4056 3.8C16.5056 3.8 14.2056 6.04 14.2056 9.44ZM23.2256 9.48C23.2256 11.86 21.6056 13.2 19.8856 13.2C18.1856 13.2 16.5456 11.82 16.5456 9.44C16.5456 7.06 18.1856 5.78 19.8856 5.78C21.6056 5.78 23.2256 7.12 23.2256 9.48ZM37.3403 11.92C37.2203 7.94 31.0003 9.18 31.0003 6.96C31.0003 6.22 31.6403 5.72 32.8603 5.72C34.1003 5.72 34.8403 6.38 34.9203 7.34H37.2003C37.0803 5.14 35.4403 3.8 32.9403 3.8C30.3403 3.8 28.7003 5.22 28.7003 6.98C28.7003 11.02 35.1003 9.78 35.1003 11.94C35.1003 12.7 34.4003 13.26 33.0803 13.26C31.8203 13.26 30.9603 12.52 30.8803 11.62H28.5203C28.6203 13.62 30.4803 15.18 33.1203 15.18C35.7203 15.18 37.3403 13.78 37.3403 11.92ZM40.4039 15H42.6839V10.26L46.7639 15H49.8439L44.7639 9.5L49.8439 3.98H46.6839L42.6839 8.8V0.2H40.4039V15ZM56.7181 5.72C58.4181 5.72 59.7581 6.8 59.7981 8.5H53.6981C53.9381 6.76 55.1781 5.72 56.7181 5.72ZM61.8781 11.72H59.4181C58.9981 12.58 58.2181 13.26 56.8181 13.26C55.1381 13.26 53.8381 12.16 53.6781 10.34H62.0981C62.1581 9.96 62.1781 9.6 62.1781 9.22C62.1781 5.98 59.9581 3.8 56.8181 3.8C53.5581 3.8 51.3181 6.02 51.3181 9.48C51.3181 12.94 53.6581 15.18 56.8181 15.18C59.5181 15.18 61.2581 13.64 61.8781 11.72ZM72.0419 3.98H64.4019V5.84H69.4219L64.4019 13.14V15H72.0419V13.14H67.0419L72.0419 5.84V3.98Z" fill="#161616"/>
</svg>
